<?xml version="1.0" encoding="utf-8"?>
<!-- Generator: Adobe Illustrator 23.0.0, SVG Export Plug-In . SVG Version: 6.00 Build 0)  -->
<svg version="1.1" id="Layer_1" xmlns="http://www.w3.org/2000/svg" xmlns:xlink="http://www.w3.org/1999/xlink" x="0px" y="0px"
	 viewBox="0 0 512 512" style="enable-background:new 0 0 512 512;" xml:space="preserve">
<style type="text/css">
	.st0{fill:#FFFFFF;}
</style>
<g>
	<g>
		<g>
			<path class="st0" d="M512,202.6c0-46-22.1-89-62.1-121.2c-39.3-31.6-91.4-48.9-146.6-48.9S195.9,49.9,156.6,81.4
				c-19.5,15.6-34.7,33.9-45.2,53.7c-21.8,7-41.8,17.5-59,31.3C18.6,193.6,0,230,0,268.9c0,35.4,15.7,69.1,44.3,95.4l-2.8,102.5
				c-0.1,5,2.7,9.6,7.3,11.7c1.6,0.7,3.4,1.1,5.1,1.1c3.1,0,6.1-1.1,8.4-3.3l73-67.5c13.2,2.5,26.7,3.8,40.4,3.8
				c45.6,0,88.6-14.1,121.4-39.8c2,0,4.1,0.1,6.1,0.1c20.5,0,40.7-2.4,60.2-7.2l63.9,59.1c2.3,2.2,5.4,3.3,8.4,3.3
				c1.7,0,3.5-0.4,5.1-1.1c4.6-2.1,7.4-6.7,7.3-11.7l-2.4-88.2C487.9,294.9,512,249.9,512,202.6z M175.7,387.6
				c-14,0-28-1.5-41.4-4.5c-4-0.9-8.2,0.2-11.2,3l-56,51.8l2.2-78.7c0.1-3.8-1.5-7.4-4.4-9.8c-25.8-22-40.1-50.6-40.1-80.5
				c0-43.5,29.9-81.6,74.3-102.3c-3.1,11.7-4.7,23.8-4.7,36c0,46,22.1,89,62.1,121.2c28.2,22.6,62.9,38,100.7,44.8
				C233.8,380.6,205.7,387.6,175.7,387.6z M425.9,310.8c-3.4,2.4-5.3,6.3-5.2,10.5l1.8,65.2l-47.2-43.7c-2.3-2.2-5.4-3.3-8.4-3.3
				c-1.1,0-2.2,0.1-3.3,0.4c-19.4,5.3-39.7,8-60.3,8c-101.4,0-183.9-65.2-183.9-145.3S201.8,57.4,303.2,57.4s183.9,65.2,183.9,145.3
				C487.1,243.8,464.8,283.2,425.9,310.8z"/>
			<path class="st0" d="M305,165.7c-22.3,0-40.4,18.1-40.4,40.4s18.1,40.4,40.4,40.4s40.4-18.1,40.4-40.4S327.2,165.7,305,165.7z
				 M305,221.6c-8.6,0-15.5-7-15.5-15.5s7-15.5,15.5-15.5c8.6,0,15.5,7,15.5,15.5S313.5,221.6,305,221.6z"/>
			<path class="st0" d="M410.6,165.7c-22.3,0-40.4,18.1-40.4,40.4s18.1,40.4,40.4,40.4s40.4-18.1,40.4-40.4S432.9,165.7,410.6,165.7
				z M410.6,221.6c-8.6,0-15.5-7-15.5-15.5s7-15.5,15.5-15.5s15.5,7,15.5,15.5S419.2,221.6,410.6,221.6z"/>
			<path class="st0" d="M199.3,165.7c-22.3,0-40.4,18.1-40.4,40.4s18.1,40.4,40.4,40.4s40.4-18.1,40.4-40.4S221.6,165.7,199.3,165.7
				z M199.3,221.6c-8.6,0-15.5-7-15.5-15.5s7-15.5,15.5-15.5c8.6,0,15.5,7,15.5,15.5S207.9,221.6,199.3,221.6z"/>
		</g>
	</g>
</g>
</svg>
