<?xml version="1.0" encoding="utf-8"?>
<!-- Generator: Adobe Illustrator 23.0.0, SVG Export Plug-In . SVG Version: 6.00 Build 0)  -->
<svg version="1.1" id="Capa_1" xmlns="http://www.w3.org/2000/svg" xmlns:xlink="http://www.w3.org/1999/xlink" x="0px" y="0px"
	 viewBox="0 0 349.7 349.7" style="enable-background:new 0 0 349.7 349.7;" xml:space="preserve">
<style type="text/css">
	.st0{fill:#EC681D;}
	.st1{fill:#FFFFFF;}
</style>
<rect x="197" y="257" class="st0" width="83" height="45"/>
<g>
	<path class="st0" d="M174.8,197.2c24.1,0,80.8-29,80.8-98.6c0-54.5-7.3-98.6-80.8-98.6S94,44.1,94,98.6
		C94,168.2,150.7,197.2,174.8,197.2z M106.1,82.1c5.7-11,18-23.7,44.4-23.1c0,0,15.7,38.2,93.1,21c0.3,6.1,0.4,12.3,0.4,18.5
		c0,34-15,55.1-27.6,66.8c-15.9,14.7-33.5,20.1-41.5,20.1s-25.6-5.3-41.5-20.1c-12.6-11.7-27.6-32.8-27.6-66.8
		C105.8,93.1,105.8,87.6,106.1,82.1z"/>
	<path class="st1" d="M324.9,298.3c-4.1-25.7-12.6-58.7-29.7-70.5c-11.6-8-52.2-29.7-69.6-39l-0.3-0.2c-2-1.1-4.4-0.8-6.2,0.5
		c-9.1,7.1-19,11.9-29.6,14.3c-1.9,0.4-3.4,1.7-4.1,3.5l-10.7,28.3L164,206.9c-0.7-1.8-2.2-3.1-4.1-3.5
		c-10.5-2.3-20.5-7.2-29.6-14.3c-1.8-1.4-4.2-1.6-6.2-0.5c-17.1,9.2-58.2,31.3-69.8,39.1c-19.6,13.2-28.2,61.1-29.7,70.5
		c-0.2,0.9-0.1,1.9,0.3,2.8c0.7,2,18.7,48.5,149.8,48.5s149.1-46.6,149.8-48.5C325,300.2,325.1,299.3,324.9,298.3z M264.5,282.7
		l-25.7,8l-25.7-8v-13.8h51.3v13.8H264.5z"/>
</g>
</svg>
