<?xml version="1.0" encoding="utf-8"?>
<!-- Generator: Adobe Illustrator 23.0.0, SVG Export Plug-In . SVG Version: 6.00 Build 0)  -->
<svg version="1.1" id="Calque_1" xmlns="http://www.w3.org/2000/svg" xmlns:xlink="http://www.w3.org/1999/xlink" x="0px" y="0px"
	 viewBox="0 0 349.7 349.7" style="enable-background:new 0 0 349.7 349.7;" xml:space="preserve">
<style type="text/css">
	.st0{fill:#57565C;}
	.st1{fill:#2D2D30;}
	.st2{fill:#EC681D;}
	.st3{fill:#FFFFFF;}
</style>
<g>
	<path class="st0" d="M106.3,79.2v21.6c0,23.8,19.4,43.2,43.2,43.2c13,0,24.4-5.8,32.4-14.9c7.9,9.1,19.4,14.9,32.4,14.9
		c23.8,0,43.2-19.4,43.2-43.2V79.2H106.3z"/>
	<path class="st0" d="M84.7,240v-90.4l63.8,30.2v36.8L84.7,240z"/>
	<path class="st0" d="M278.9,240l-63.8-23.4v-36.8l63.8-30.2V240z"/>
</g>
<path class="st1" d="M215.1,179.7v36.8l63.8,23.4v-45.2L215.1,179.7z"/>
<path class="st1" d="M148.5,179.7l-63.8,15V240l63.8-23.4V179.7z"/>
<path class="st2" d="M332.9,348.9H30.8V234l117.7-37.2l33.3,20.4l33.3-20.4L332.9,234V348.9z"/>
<path class="st3" d="M257.3,100.7h-151V36c0-17.8,14.5-32.4,32.4-32.4h12.6c8.6,0,16.8,3.4,22.9,9.5c4.2,4.2,11,4.2,15.3,0
	c6.1-6.1,14.2-9.5,22.9-9.5H225c17.8,0,32.4,14.5,32.4,32.4v64.7H257.3z"/>
<path class="st3" d="M106.3,57.6h151v43.2h-151L106.3,57.6L106.3,57.6z"/>
<path class="st1" d="M106.3,100.7c0,7.9,2.3,15.2,6,21.6h139c3.7-6.4,6-13.7,6-21.6V79.2h-151L106.3,100.7L106.3,100.7z"/>
<path class="st3" d="M84.7,79.2h194.2v21.6H84.7V79.2z"/>
<path class="st1" d="M84.7,284.1h21.6v64.7H84.7V284.1z"/>
<path class="st1" d="M257.3,284.1h21.6v64.7h-21.6V284.1z"/>
</svg>
