<?xml version="1.0" encoding="utf-8"?>
<!-- Generator: Adobe Illustrator 23.0.0, SVG Export Plug-In . SVG Version: 6.00 Build 0)  -->
<svg version="1.1" id="Layer_1" xmlns="http://www.w3.org/2000/svg" xmlns:xlink="http://www.w3.org/1999/xlink" x="0px" y="0px"
	 viewBox="0 0 512 512" style="enable-background:new 0 0 512 512;" xml:space="preserve">
<style type="text/css">
	.st0{fill:#EC681D;}
	.st1{fill:#FFFFFF;}
	.st2{fill:#F9F9F9;}
</style>
<path class="st0" d="M256,0C114.6,0,0,114.6,0,256s114.6,256,256,256s256-114.6,256-256S397.4,0,256,0z M256,463.5
	c-114.6,0-207.5-92.9-207.5-207.5S141.4,48.5,256,48.5S463.5,141.4,463.5,256S370.6,463.5,256,463.5z"/>
<path class="st1" d="M342.6,196.8c7.6-7.6,7.6-19.9,0-27.5c-7.6-7.6-19.9-7.6-27.5,0L241.6,243l27.5,27.5L342.6,196.8z"/>
<path class="st0" d="M244.2,250.6L135,359.8c-4.7,4.7-4.7,12.4,0,17.2c2.4,2.4,5.5,3.6,8.6,3.6s6.2-1.2,8.6-3.6l109.2-109.2
	L244.2,250.6z"/>
<path class="st1" d="M171.1,143.6c-7.6-7.6-19.9-7.6-27.5,0c-7.6,7.6-7.6,19.9,0,27.5l99.3,99.3l27.5-27.5L171.1,143.6z"/>
<path class="st0" d="M256,286.3c-16.7,0-30.3-13.6-30.3-30.3s13.6-30.3,30.3-30.3s30.3,13.6,30.3,30.3S272.7,286.3,256,286.3z"/>
<g>
	<path class="st2" d="M115.3,268.1H97.1c-6.7,0-12.1-5.4-12.1-12.1c0-6.7,5.4-12.1,12.1-12.1h18.2c6.7,0,12.1,5.4,12.1,12.1
		C127.4,262.7,122,268.1,115.3,268.1z"/>
	<path class="st2" d="M256,127.4c-6.7,0-12.1-5.4-12.1-12.1V97.1c0-6.7,5.4-12.1,12.1-12.1s12.1,5.4,12.1,12.1v18.2
		C268.1,122,262.7,127.4,256,127.4z"/>
	<path class="st2" d="M414.9,268.1h-18.2c-6.7,0-12.1-5.4-12.1-12.1c0-6.7,5.4-12.1,12.1-12.1h18.2c6.7,0,12.1,5.4,12.1,12.1
		C427.1,262.7,421.6,268.1,414.9,268.1z"/>
	<path class="st2" d="M256,427.1c-6.7,0-12.1-5.4-12.1-12.1v-18.2c0-6.7,5.4-12.1,12.1-12.1s12.1,5.4,12.1,12.1v18.2
		C268.1,421.6,262.7,427.1,256,427.1z"/>
</g>
</svg>
