<?xml version="1.0" encoding="utf-8"?>
<!-- Generator: Adobe Illustrator 23.0.0, SVG Export Plug-In . SVG Version: 6.00 Build 0)  -->
<svg version="1.1" id="Capa_1" xmlns="http://www.w3.org/2000/svg" xmlns:xlink="http://www.w3.org/1999/xlink" x="0px" y="0px"
	 viewBox="0 0 512 512" style="enable-background:new 0 0 512 512;" xml:space="preserve">
<style type="text/css">
	.st0{fill:#2C3E50;}
</style>
<g>
	<g>
		<path class="st0" d="M23.4,218v27.3 M23.4,266.7v108.4c0,25.8,21,46.7,46.7,46.7h371.6c12.5,0,24.2-4.9,33.1-13.7
			c8.8-8.8,13.7-20.6,13.7-33.1V136.9c0-25.8-21-46.7-46.7-46.7H70.2c-12.9,0-24.6,5.2-33,13.7s-13.7,20.2-13.7,33v59.8 M47.6,386.7
			c-1.8-3.5-2.8-7.4-2.8-11.6V137c0-9.4,5.1-17.6,12.7-22l130.9,130.9L47.6,386.7z M176.3,203.5H221c5.9,0,10.7-4.8,10.7-10.7
			s-4.8-10.7-10.7-10.7h-66l-22-22h136.3c5.9,0,10.7-4.8,10.7-10.7s-4.8-10.7-10.7-10.7H111.6l-27.4-27.4h343.5L274,265.3
			c-9.9,9.9-26,9.9-35.9,0L176.3,203.5z M441.8,400.5H70.2c-1.9,0-3.8-0.2-5.6-0.6L203.5,261l19.4,19.4c18.2,18.2,47.9,18.2,66.1,0
			l19.4-19.4l86.4,86.4h-87.3c-2.9,0-5.6,1.2-7.5,3.1s-3.1,4.6-3.1,7.5c0,5.9,4.8,10.7,10.7,10.7h108.6l0,0l31.2,31.2
			C445.6,400.3,443.7,400.5,441.8,400.5z M323.6,245.9L454.5,115c7.6,4.4,12.7,12.6,12.7,22v238.1c0,4.1-1,8.1-2.8,11.6L323.6,245.9
			z"/>
	</g>
</g>
</svg>
