<?xml version="1.0" encoding="utf-8"?>
<!-- Generator: Adobe Illustrator 23.0.0, SVG Export Plug-In . SVG Version: 6.00 Build 0)  -->
<svg version="1.1" id="Capa_1" xmlns="http://www.w3.org/2000/svg" xmlns:xlink="http://www.w3.org/1999/xlink" x="0px" y="0px"
	 viewBox="0 0 485.2 485.2" style="enable-background:new 0 0 485.2 485.2;" xml:space="preserve">
<style type="text/css">
	.st0{fill:#EC681D;}
	.st1{fill:#FFFFFF;}
</style>
<g>
	<g>
		<path class="st0" d="M363.9,182c0-100.5-81.5-182-182-182C81.5,0,0,81.5,0,182s81.5,182,182,182
			C282.4,363.9,363.9,282.4,363.9,182z M182,318.4c-75.3,0-136.5-61.2-136.5-136.5S106.7,45.5,182,45.5
			c75.3,0,136.5,61.2,136.5,136.5S257.2,318.4,182,318.4z"/>
		<path class="st1" d="M471.9,407.6L360.6,296.2C344,322,322,344,296.2,360.6l111.3,111.3c17.8,17.8,46.6,17.8,64.3,0
			C489.7,454.1,489.7,425.3,471.9,407.6z"/>
	</g>
</g>
</svg>
