<?xml version="1.0" standalone="no"?>
<!DOCTYPE svg PUBLIC "-//W3C//DTD SVG 20010904//EN"
 "http://www.w3.org/TR/2001/REC-SVG-20010904/DTD/svg10.dtd">
<svg version="1.0" xmlns="http://www.w3.org/2000/svg"
 width="233.000000pt" height="233.000000pt" viewBox="0 0 233.000000 233.000000"
 preserveAspectRatio="xMidYMid meet">
<metadata>
Created by potrace 1.11, written by Peter Selinger 2001-2013
</metadata>
<g transform="translate(0.000000,233.000000) scale(0.100000,-0.100000)"
fill="#000000" stroke="none">
<path d="M1122 1973 l3 -98 -65 -7 c-375 -38 -697 -317 -789 -684 -18 -72 -29
-140 -30 -187 -1 -10 -4 -16 -9 -13 -4 2 -52 6 -107 8 -99 3 -99 3 -105 -22
-10 -39 -1 -57 23 -54 12 2 61 5 109 7 74 2 88 0 89 -13 0 -8 2 -24 3 -35 2
-11 6 -45 11 -75 10 -75 48 -188 90 -268 38 -73 134 -206 142 -198 3 3 -3 24
-13 48 -24 57 -28 218 -7 290 19 66 38 87 84 90 35 2 36 2 22 27 -7 14 -13 31
-13 38 0 18 -30 30 -70 28 -48 -2 -58 -10 -52 -40 4 -26 10 -29 49 -25 40 3
45 -11 11 -28 -41 -21 -66 -70 -72 -142 -2 -30 -5 -57 -6 -60 0 -3 -15 28 -31
69 -33 80 -55 167 -63 247 -7 61 -12 59 143 59 l104 0 3 -35 c7 -61 26 -145
36 -157 8 -9 53 -13 161 -13 83 0 148 2 146 5 -3 2 -64 5 -137 6 -81 0 -132 5
-132 11 0 5 18 35 40 67 78 111 140 126 520 123 300 -2 347 -17 431 -138 18
-26 27 -50 22 -55 -4 -4 -71 -10 -148 -12 l-140 -3 167 -2 168 -2 6 28 c3 15
10 41 15 58 5 16 10 52 11 78 l2 48 111 -6 c60 -3 118 -5 127 -6 14 0 16 -9
12 -57 -5 -70 -35 -181 -68 -257 -14 -31 -26 -56 -28 -56 -2 0 -4 26 -6 57 -3
74 -28 124 -72 145 -29 13 -32 18 -17 23 9 4 23 5 31 2 27 -11 68 44 44 59
-17 11 -81 12 -100 3 -9 -5 -19 -22 -23 -39 -4 -16 -11 -30 -17 -30 -21 0 3
-14 30 -18 73 -9 96 -61 96 -222 1 -79 -4 -117 -18 -153 -10 -27 -16 -50 -13
-53 6 -6 78 89 121 160 69 115 118 279 125 416 1 13 15 15 89 13 48 -2 97 -5
109 -7 26 -4 30 4 25 48 -4 35 10 33 -154 25 -32 -1 -60 0 -63 3 -4 3 -9 30
-11 59 -37 390 -344 728 -729 803 -44 9 -96 17 -115 19 l-35 3 3 97 3 97 -41
0 -41 0 3 -97z m14 -216 c1 -12 3 -65 4 -117 l3 -95 -55 -7 c-224 -28 -411
-182 -483 -397 -14 -44 -27 -101 -28 -126 l-2 -45 -70 4 c-38 2 -96 4 -128 5
l-58 1 6 53 c10 83 14 100 36 173 93 302 354 526 673 578 86 14 100 10 102
-27z m135 29 c220 -23 449 -165 581 -360 75 -110 131 -262 142 -388 l5 -58
-52 -1 c-29 -1 -86 -2 -127 -3 l-74 -1 -2 30 c-13 228 -188 446 -410 511 -32
9 -81 19 -109 23 l-50 6 4 90 c2 50 5 101 5 115 2 32 13 50 29 45 7 -2 33 -6
58 -9z m-120 -353 c1 -43 1 -88 1 -100 -1 -13 2 -23 6 -23 4 0 8 15 9 33 0 17
2 62 3 100 l3 67 34 0 c109 0 254 -69 350 -166 65 -66 136 -194 147 -264 16
-104 16 -108 -4 -113 -11 -3 -95 -3 -187 -1 -214 6 -492 6 -707 1 -92 -3 -177
-2 -187 0 -17 5 -18 12 -13 52 15 112 52 198 123 289 89 112 255 199 384 201
l37 1 1 -77z m-409 -504 c-25 -13 -59 -43 -80 -71 -41 -54 -44 -51 -56 34 -7
54 -9 53 104 56 l75 3 -43 -22z m970 -32 c-1 -25 -6 -56 -10 -67 -7 -18 -11
-15 -45 30 -20 27 -54 59 -75 70 l-37 20 85 -3 85 -2 -3 -48z"/>
<path d="M512 688 c-7 -7 -12 -28 -12 -48 0 -41 8 -47 104 -80 61 -21 161 -27
170 -11 8 12 -121 128 -156 140 -33 12 -68 -11 -71 -46 -1 -15 -5 -19 -11 -13
-7 7 -7 20 1 40 12 32 -1 42 -25 18z"/>
<path d="M1695 686 c-48 -21 -159 -127 -143 -137 33 -21 205 10 247 44 21 18
29 50 19 79 -13 36 -43 39 -34 4 3 -14 3 -33 -1 -43 -6 -15 -8 -13 -13 11 -7
42 -37 58 -75 42z"/>
<path d="M496 544 c-18 -18 -16 -40 14 -137 18 -59 24 -67 63 -85 23 -11 43
-19 45 -17 2 1 -10 15 -26 31 -27 28 -72 157 -59 170 7 7 199 -52 218 -68 9
-7 31 -34 48 -61 47 -70 65 -78 160 -76 99 2 116 15 25 18 -88 3 -108 12 -147
67 -61 89 -66 93 -191 134 -66 22 -123 40 -127 40 -4 0 -15 -7 -23 -16z"/>
<path d="M1671 521 c-120 -40 -126 -44 -188 -135 -37 -53 -60 -64 -138 -68
-85 -5 -65 -18 26 -18 90 0 92 2 177 108 29 37 44 45 133 73 55 18 102 29 106
26 3 -4 -4 -39 -15 -79 -15 -51 -30 -80 -50 -95 -32 -27 -15 -30 34 -7 29 14
47 43 56 89 1 6 7 30 15 54 16 55 16 56 -3 75 -20 21 -20 21 -153 -23z"/>
<path d="M866 496 c-59 -17 -67 -37 -30 -82 64 -80 60 -79 307 -81 135 -2 235
1 254 8 38 12 115 95 111 118 -8 40 -51 46 -333 47 -171 1 -284 -3 -309 -10z"/>
<path d="M1068 313 c7 -3 16 -2 19 1 4 3 -2 6 -13 5 -11 0 -14 -3 -6 -6z"/>
<path d="M1230 316 c0 -2 11 -6 25 -8 13 -3 22 -1 19 3 -5 9 -44 13 -44 5z"/>
<path d="M656 268 c3 -5 10 -6 15 -3 13 9 11 12 -6 12 -8 0 -12 -4 -9 -9z"/>
<path d="M690 270 c0 -4 12 -8 28 -8 108 -1 836 0 870 1 23 1 42 4 42 7 0 3
-211 6 -470 7 -259 0 -470 -3 -470 -7z"/>
<path d="M1668 273 c7 -3 16 -2 19 1 4 3 -2 6 -13 5 -11 0 -14 -3 -6 -6z"/>
<path d="M1708 273 c7 -3 16 -2 19 1 4 3 -2 6 -13 5 -11 0 -14 -3 -6 -6z"/>
</g>
</svg>
